<svg xmlns="http://www.w3.org/2000/svg" fill="none" viewBox="-1.785 -1.785 50 50" height="50" width="50" id="Shopping-Cart-2--Streamline-Core.svg"><desc>Shopping Cart 2 Streamline Icon: https://streamlinehq.com</desc><g id="shopping-cart-2--shopping-cart-checkout"><path id="Vector" stroke="#000000" stroke-linecap="round" stroke-linejoin="round" d="M40.40006957142858 24.873214285714287H13.271783350000002l-3.3164285714285717 -16.58214285714286h33.16418622142857c0.24276257142857147 0.0008954357142857143 0.4818770714285715 0.05495322142857144 0.7014246428571429 0.15842579285714287 0.2192159285714286 0.10343940714285715 0.41322700000000007 0.2537731142857143 0.5681042142857143 0.4403553857142858 0.15520885714285715 0.18654910714285716 0.2673041428571429 0.4048696 0.32865807142857145 0.6394737571428571 0.06135392857142857 0.23463732142857144 0.07063992857142858 0.4798540500000001 0.02686307142857143 0.7184379214285714l-2.7194714285714285 13.265714285714287c-0.06334378571428571 0.38354496428571433 -0.26232950000000005 0.7316704714285716 -0.5604764285714287 0.9811322285714287 -0.2981469285714286 0.24949492142857146 -0.6758881428571429 0.38381027857142863 -1.0645735714285716 0.37860348571428576v0Z" stroke-width="3.57"></path><path id="Vector_2" stroke="#000000" stroke-linecap="round" stroke-linejoin="round" d="m9.95535477857143 8.29107142857143 -1.3929 -5.306285714285715C8.4860111 2.610241537142857 8.28248187857143 2.2736107714285714 7.986357971428571 2.0318729764285717 7.690234064285716 1.7901351814285715 7.319689500000001 1.6581346914285715 6.937404778571429 1.6582142857142859H1.6642866664285716" stroke-width="3.57"></path><path id="Vector_3" stroke="#000000" stroke-linecap="round" stroke-linejoin="round" d="m13.271783350000002 24.873214285714287 1.3929 6.964500000000001c0.07644367857142859 0.3745574428571429 0.2799729 0.7111749428571429 0.5760968071428572 0.9529094214285714 0.29612390714285713 0.24173447857142857 0.6667016357142858 0.3736620071428572 1.048953192857143 0.3736620071428572h20.19695050714286" stroke-width="3.57"></path><path id="Vector_4" stroke="#000000" stroke-linecap="round" stroke-linejoin="round" d="M34.82846957142857 44.77178571428572c-0.9156659285714287 0 -1.6582142857142859 -0.7425483571428572 -1.6582142857142859 -1.6582142857142859s0.7425483571428572 -1.6582142857142859 1.6582142857142859 -1.6582142857142859c0.9159975714285715 0 1.6582142857142859 0.7425483571428572 1.6582142857142859 1.6582142857142859s-0.7422167142857143 1.6582142857142859 -1.6582142857142859 1.6582142857142859Z" stroke-width="3.57"></path><path id="Vector_5" stroke="#000000" stroke-linecap="round" stroke-linejoin="round" d="M18.246426207142857 44.77178571428572c-0.9157985857142857 0 -1.6582142857142859 -0.7425483571428572 -1.6582142857142859 -1.6582142857142859s0.7424157000000001 -1.6582142857142859 1.6582142857142859 -1.6582142857142859 1.6582142857142859 0.7425483571428572 1.6582142857142859 1.6582142857142859 -0.7424157000000001 1.6582142857142859 -1.6582142857142859 1.6582142857142859Z" stroke-width="3.57"></path></g></svg>