<svg xmlns="http://www.w3.org/2000/svg" fill="none" viewBox="-1.785 -1.785 50 50" height="50" width="50" id="Chat-Bubble-Typing-Oval--Streamline-Core.svg"><desc>Chat Bubble Typing Oval Streamline Icon: https://streamlinehq.com</desc><g id="chat-bubble-typing-oval--messages-message-bubble-typing-chat"><g id="Group 4482"><path id="Vector" stroke="#000000" stroke-linecap="round" stroke-linejoin="round" d="M23.221467035714287 24.044107142857143c-0.45789929285714287 0 -0.8291071428571429 -0.37120785000000006 -0.8291071428571429 -0.8291071428571429s0.37120785000000006 -0.8291071428571429 0.8291071428571429 -0.8291071428571429" stroke-width="3.57"></path><path id="Vector_2" stroke="#000000" stroke-linecap="round" stroke-linejoin="round" d="M23.221467035714287 24.044107142857143c0.45789929285714287 0 0.8291071428571429 -0.37120785000000006 0.8291071428571429 -0.8291071428571429s-0.37120785000000006 -0.8291071428571429 -0.8291071428571429 -0.8291071428571429" stroke-width="3.57"></path></g><g id="Group 4493"><path id="Vector_3" stroke="#000000" stroke-linecap="round" stroke-linejoin="round" d="M14.101288464285716 24.044107142857143c-0.45789929285714287 0 -0.8291071428571429 -0.37120785000000006 -0.8291071428571429 -0.8291071428571429s0.37120785000000006 -0.8291071428571429 0.8291071428571429 -0.8291071428571429" stroke-width="3.57"></path><path id="Vector_4" stroke="#000000" stroke-linecap="round" stroke-linejoin="round" d="M14.101288464285716 24.044107142857143c0.45789929285714287 0 0.8291071428571429 -0.37120785000000006 0.8291071428571429 -0.8291071428571429s-0.37120785000000006 -0.8291071428571429 -0.8291071428571429 -0.8291071428571429" stroke-width="3.57"></path></g><g id="Group 4494"><path id="Vector_5" stroke="#000000" stroke-linecap="round" stroke-linejoin="round" d="M32.341645607142866 24.044107142857143c-0.45789929285714287 0 -0.8291071428571429 -0.37120785000000006 -0.8291071428571429 -0.8291071428571429s0.37120785000000006 -0.8291071428571429 0.8291071428571429 -0.8291071428571429" stroke-width="3.57"></path><path id="Vector_6" stroke="#000000" stroke-linecap="round" stroke-linejoin="round" d="M32.341645607142866 24.044107142857143c0.45789929285714287 0 0.8292729642857143 -0.37120785000000006 0.8292729642857143 -0.8291071428571429s-0.3713736714285715 -0.8291071428571429 -0.8292729642857143 -0.8291071428571429" stroke-width="3.57"></path></g><path id="Vector_7" stroke="#000000" stroke-linecap="round" stroke-linejoin="round" d="M23.208864607142857 1.8590174028571431c-3.863042328571429 0.0012038635714285715 -7.653454871428572 1.0502034864285714 -10.967495614285715 3.03526839 -3.3140075785714287 1.9850814857142858 -6.0275426 4.831870607142857 -7.851578314285715 8.237179464285715C2.565748331428572 16.536774114285716 1.6995303528571428 20.373086028571432 1.88338652 24.231750671428575 2.067239370714286 28.090448478571435 3.294284777857143 31.82700222142857 5.433835557142857 35.04337414285715L1.8525371014285716 44.57180507142858l11.992391434285715 -2.168612642857143c2.8877470142857145 1.4111403571428571 6.056727171428571 2.152362142857143 9.270777592857144 2.1682810000000003 3.214050421428572 0.015918857142857144 6.39022722857143 -0.6937968571428572 9.291803750000001 -2.0764159285714285 2.9015101928571427 -1.3822874285714286 5.453833621428572 -3.401992428571429 7.465910835714285 -5.908217500000001 2.0124088571428573 -2.505893428571429 3.4334985000000007 -5.433968214285715 4.15647992857143 -8.565638550000001 0.7233130714285715 -3.131637171428572 0.7306092142857143 -6.386148021428572 0.020893500000000002 -9.520902635714288 -0.7097157142857143 -3.134787778571429 -2.117539642857143 -6.068964792857144 -4.119004285714286 -8.583812578571429 -2.001464642857143 -2.5148809500000002 -4.544833714285715 -4.545530164285715 -7.440274842857143 -5.940652171428572C29.596007557142862 2.5807021078571433 26.422948192857145 1.857120405714286 23.208864607142857 1.8590174028571431v0Z" stroke-width="3.57"></path></g></svg>