<svg xmlns="http://www.w3.org/2000/svg" fill="none" viewBox="-1.785 -1.785 50 50" height="50" width="50" id="Dashboard-Circle--Streamline-Core.svg"><desc>Dashboard Circle Streamline Icon: https://streamlinehq.com</desc><g id="dashboard-circle--app-application-dashboard-home-layout-circle"><path id="Vector" stroke="#000000" stroke-linecap="round" stroke-linejoin="round" d="M10.778392857142858 19.89857142857143C15.815318242857144 19.89857142857143 19.89857142857143 15.815318242857144 19.89857142857143 10.778392857142858S15.815318242857144 1.6582142857142859 10.778392857142858 1.6582142857142859 1.6582142857142859 5.741467471428572 1.6582142857142859 10.778392857142858 5.741467471428572 19.89857142857143 10.778392857142858 19.89857142857143Z" stroke-width="3.57"></path><path id="Vector_2" stroke="#000000" stroke-linecap="round" stroke-linejoin="round" d="M35.651607142857145 19.89857142857143c5.036991714285715 0 9.120178571428573 -4.083253185714286 9.120178571428573 -9.120178571428573S40.688598857142864 1.6582142857142859 35.651607142857145 1.6582142857142859C30.61468175714286 1.6582142857142859 26.531428571428574 5.741467471428572 26.531428571428574 10.778392857142858S30.61468175714286 19.89857142857143 35.651607142857145 19.89857142857143Z" stroke-width="3.57"></path><path id="Vector_3" stroke="#000000" stroke-linecap="round" stroke-linejoin="round" d="M10.778392857142858 44.77178571428572C15.815318242857144 44.77178571428572 19.89857142857143 40.688598857142864 19.89857142857143 35.651607142857145 19.89857142857143 30.61468175714286 15.815318242857144 26.531428571428574 10.778392857142858 26.531428571428574S1.6582142857142859 30.61468175714286 1.6582142857142859 35.651607142857145c0 5.036991714285715 4.083253185714286 9.120178571428573 9.120178571428573 9.120178571428573Z" stroke-width="3.57"></path><path id="Vector_4" stroke="#000000" stroke-linecap="round" stroke-linejoin="round" d="M35.651607142857145 44.77178571428572c5.036991714285715 0 9.120178571428573 -4.083186857142858 9.120178571428573 -9.120178571428573C44.77178571428572 30.61468175714286 40.688598857142864 26.531428571428574 35.651607142857145 26.531428571428574 30.61468175714286 26.531428571428574 26.531428571428574 30.61468175714286 26.531428571428574 35.651607142857145c0 5.036991714285715 4.083253185714286 9.120178571428573 9.120178571428573 9.120178571428573Z" stroke-width="3.57"></path></g></svg>