<svg xmlns="http://www.w3.org/2000/svg" fill="none" viewBox="0 0 50 50" height="50" width="50" id="Shopping-Cart-2--Streamline-Core.svg"><desc>Shopping Cart 2 Streamline Icon: https://streamlinehq.com</desc><g id="shopping-cart-2--shopping-cart-checkout"><path id="Union" fill="#000000" fill-rule="evenodd" d="M2.678571428571429 5.357142857142858h4.985714285714286l1.3535714285714286 5.142857142857143a2.742857142857143 2.742857142857143 0 0 0 0.03571428571428572 0.12142857142857144l3.4571428571428573 17.303571428571427a2.7035714285714287 2.7035714285714287 0 0 0 0.04285714285714286 0.2785714285714286l1.5 7.500000000000001 0 0.010714285714285714a4.464285714285714 4.464285714285714 0 0 0 4.375000000000001 3.5714285714285716h21.75a2.678571428571429 2.678571428571429 0 0 0 0 -5.357142857142858H19.16071428571429l-0.8928571428571429 -4.464285714285714H43.214285714285715l0.03571428571428572 0h0.0035714285714285718c0.12500000000000003 0 0.4821428571428572 0.010714285714285714 0.8107142857142858 -0.04285714285714286a3.607142857142857 3.607142857142857 0 0 0 2.7 -2.1035714285714286c0.19285714285714287 -0.4428571428571429 0.2892857142857143 -1.0035714285714288 0.32142857142857145 -1.1892857142857145l0.010714285714285714 -0.05 2.825 -13.792857142857144 0.0071428571428571435 -0.03571428571428572A3.5749999999999997 3.5749999999999997 0 0 0 46.42857142857143 8.035714285714286l-0.0071428571428571435 0 -32.517857142857146 0L12.714285714285715 3.482142857142857A4.464285714285714 4.464285714285714 0 0 0 8.357142857142858 0H2.678571428571429a2.678571428571429 2.678571428571429 0 1 0 0 5.357142857142858Zm38.85714285714286 40.35714285714286a4.103571428571429 4.103571428571429 0 1 0 -8.207142857142857 0 4.103571428571429 4.103571428571429 0 0 0 8.20357142857143 0Zm-21.964285714285715 -4.1a4.103571428571429 4.103571428571429 0 1 1 0 8.20357142857143 4.103571428571429 4.103571428571429 0 0 1 0 -8.20357142857143Z" clip-rule="evenodd" stroke-width="1"></path></g></svg>