<svg xmlns="http://www.w3.org/2000/svg" fill="none" viewBox="0 0 50 50" height="50" width="50" id="Chat-Bubble-Typing-Oval--Streamline-Core.svg"><desc>Chat Bubble Typing Oval Streamline Icon: https://streamlinehq.com</desc><g id="chat-bubble-typing-oval--messages-message-bubble-typing-chat"><path id="Subtract" fill="#000000" fill-rule="evenodd" d="M24.992857142857144 0.16428571428571428A24.835714285714285 24.835714285714285 0 1 1 14.639285714285716 47.57142857142858l-12.37857142857143 2.2392857142857143a1.7857142857142858 1.7857142857142858 0 0 1 -1.985714285714286 -2.385714285714286l3.5500000000000003 -9.45A24.835714285714285 24.835714285714285 0 0 1 24.992857142857144 0.16428571428571428ZM17.857142857142858 25a3.5714285714285716 3.5714285714285716 0 1 1 -7.142857142857143 0 3.5714285714285716 3.5714285714285716 0 0 1 7.142857142857143 0Zm7.142857142857143 3.5714285714285716a3.5714285714285716 3.5714285714285716 0 1 0 0 -7.142857142857143 3.5714285714285716 3.5714285714285716 0 0 0 0 7.142857142857143Zm10.714285714285715 0a3.5714285714285716 3.5714285714285716 0 1 0 0 -7.142857142857143 3.5714285714285716 3.5714285714285716 0 0 0 0 7.142857142857143Z" clip-rule="evenodd" stroke-width="1"></path></g></svg>