<svg xmlns="http://www.w3.org/2000/svg" fill="none" viewBox="0 0 50 50" height="50" width="50" id="Dashboard-Circle--Streamline-Core.svg"><desc>Dashboard Circle Streamline Icon: https://streamlinehq.com</desc><g id="dashboard-circle--app-application-dashboard-home-layout-circle"><path id="Union" fill="#000000" fill-rule="evenodd" d="M21.42857142857143 10.714285714285715c0 5.917321428571428 -4.796964285714286 10.714285714285715 -10.714285714285715 10.714285714285715S0 16.631607142857145 0 10.714285714285715s4.796964285714286 -10.714285714285715 10.714285714285715 -10.714285714285715 10.714285714285715 4.796964285714286 10.714285714285715 10.714285714285715Zm28.571428571428573 0c0 5.917321428571428 -4.796785714285714 10.714285714285715 -10.714285714285715 10.714285714285715 -5.917321428571428 0 -10.714285714285715 -4.796964285714286 -10.714285714285715 -10.714285714285715s4.796964285714286 -10.714285714285715 10.714285714285715 -10.714285714285715c5.9175 0 10.714285714285715 4.796964285714286 10.714285714285715 10.714285714285715ZM10.714285714285715 50c5.917321428571428 0 10.714285714285715 -4.796785714285714 10.714285714285715 -10.714285714285715 0 -5.917321428571428 -4.796964285714286 -10.714285714285715 -10.714285714285715 -10.714285714285715s-10.714285714285715 4.796964285714286 -10.714285714285715 10.714285714285715c0 5.9175 4.796964285714286 10.714285714285715 10.714285714285715 10.714285714285715Zm39.285714285714285 -10.714285714285715c0 5.9175 -4.796785714285714 10.714285714285715 -10.714285714285715 10.714285714285715 -5.917321428571428 0 -10.714285714285715 -4.796785714285714 -10.714285714285715 -10.714285714285715 0 -5.917321428571428 4.796964285714286 -10.714285714285715 10.714285714285715 -10.714285714285715 5.9175 0 10.714285714285715 4.796964285714286 10.714285714285715 10.714285714285715Z" clip-rule="evenodd" stroke-width="1"></path></g></svg>