<svg xmlns="http://www.w3.org/2000/svg" fill="none" viewBox="0 0 50 50" height="50" width="50" id="User-Circle-Single--Streamline-Core.svg"><desc>User Circle Single Streamline Icon: https://streamlinehq.com</desc><g id="user-circle-single--circle-geometric-human-person-single-user"><path id="Union" fill="#000000" fill-rule="evenodd" d="M50 25c0 6.703107142857143 -2.638214285714286 12.790000000000001 -6.9325 17.279285714285713 -4.535714285714286 4.741071428571429 -10.918571428571429 7.700000000000001 -17.99289285714286 7.720714285714286L25 50l-0.07460714285714286 0c-7.074321428571428 -0.020714285714285713 -13.45732142857143 -2.9796428571428573 -17.992785714285716 -7.720714285714286C2.638067857142857 37.790000000000006 0 31.703107142857146 0 25c0 -13.807107142857143 11.192892857142857 -25 25 -25 13.807142857142859 0 25 11.192892857142857 25 25Zm-9.847142857142858 12.5C36.550357142857145 33.13739285714286 31.09978571428572 30.357035714285715 25 30.357035714285715c-6.099785714285715 0 -11.550214285714286 2.780357142857143 -15.153035714285714 7.142964285714287 3.602821428571429 4.362500000000001 9.05325 7.142857142857143 15.153035714285714 7.142857142857143 6.099785714285715 0 11.550357142857145 -2.780357142857143 15.152857142857144 -7.142857142857143ZM25.00042857142857 26.785607142857145c4.931107142857144 0 8.928571428571429 -3.9974642857142855 8.928571428571429 -8.928571428571429s-3.9974642857142855 -8.928571428571429 -8.928571428571429 -8.928571428571429 -8.928571428571429 3.9974642857142855 -8.928571428571429 8.928571428571429 3.9974642857142855 8.928571428571429 8.928571428571429 8.928571428571429Z" clip-rule="evenodd" stroke-width="1"></path></g></svg>