<svg xmlns="http://www.w3.org/2000/svg" fill="none" viewBox="-1.785 -1.785 50 50" height="50" width="50" id="User-Circle-Single--Streamline-Core.svg"><desc>User Circle Single Streamline Icon: https://streamlinehq.com</desc><g id="user-circle-single--circle-geometric-human-person-single-user"><path id="Vector" stroke="#000000" stroke-linecap="round" stroke-linejoin="round" d="M23.215000000000003 26.531428571428574c4.579026092857144 0 8.29107142857143 -3.7120453357142855 8.29107142857143 -8.29107142857143S27.79402609285715 9.949285714285715 23.215000000000003 9.949285714285715 14.923928571428572 13.661331050000003 14.923928571428572 18.240357142857146 18.63597390714286 26.531428571428574 23.215000000000003 26.531428571428574Z" stroke-width="3.57"></path><path id="Vector_2" stroke="#000000" stroke-linecap="round" stroke-linejoin="round" d="M9.053783671428572 39.465500000000006c1.479923085714286 -2.429283928571429 3.559887592857143 -4.4370497857142865 6.039912878571429 -5.829949785714287 2.480025285714286 -1.3932979714285716 5.276703171428572 -2.1250347714285716 8.121237121428571 -2.1250347714285716 2.84453395 0 5.641211835714286 0.7317368000000001 8.121237121428571 2.1250347714285716 2.4801247785714287 1.3929 4.559857135714286 3.4006658571428576 6.039979207142857 5.829949785714287" stroke-width="3.57"></path><path id="Vector_3" stroke="#000000" stroke-linecap="round" stroke-linejoin="round" d="M23.215000000000003 44.77178571428572c11.90564692857143 0 21.556785714285716 -9.651138785714286 21.556785714285716 -21.556785714285716C44.77178571428572 11.309518892857144 35.12064692857143 1.6582142857142859 23.215000000000003 1.6582142857142859 11.309518892857144 1.6582142857142859 1.6582142857142859 11.309518892857144 1.6582142857142859 23.215000000000003c0 11.90564692857143 9.651304607142857 21.556785714285716 21.556785714285716 21.556785714285716Z" stroke-width="3.57"></path></g></svg>